<?xml version="1.0" standalone="no"?>
<!DOCTYPE svg PUBLIC "-//W3C//DTD SVG 20010904//EN"
 "http://www.w3.org/TR/2001/REC-SVG-20010904/DTD/svg10.dtd">
<svg version="1.0" xmlns="http://www.w3.org/2000/svg"
 width="215.000000pt" height="230.000000pt" viewBox="0 0 215.000000 230.000000"
 preserveAspectRatio="xMidYMid meet">

<g transform="translate(0.000000,230.000000) scale(0.100000,-0.100000)"
fill="#002d72" stroke="none">
<path d="M805 2244 c-212 -14 -574 -64 -686 -94 -29 -8 -40 -17 -45 -37 -12
-45 4 -463 21 -573 31 -199 90 -411 157 -559 l28 -63 74 70 c129 122 272 204
451 259 84 25 103 27 270 27 167 0 186 -2 270 -27 179 -55 322 -137 451 -259
l74 -70 28 63 c66 148 126 359 157 559 17 110 33 528 21 574 -5 19 -16 28 -45
36 -68 18 -323 59 -472 75 -138 15 -625 27 -754 19z m369 -271 c26 -77 30
-142 12 -212 -9 -35 -14 -66 -11 -69 3 -3 15 -1 28 5 36 17 78 104 86 181 l8
67 18 -40 c13 -28 19 -64 19 -120 1 -98 -27 -167 -101 -246 -44 -48 -154 -129
-175 -129 -4 0 -8 20 -8 45 0 24 -5 55 -11 69 -14 29 -68 68 -121 87 -21 7
-53 28 -70 47 -56 57 -42 124 52 258 22 32 40 63 40 71 0 25 18 13 24 -17 5
-27 -3 -62 -29 -122 -9 -23 2 -23 41 1 50 31 89 120 89 204 l0 69 46 -51 c27
-28 54 -71 63 -98z"/>
<path d="M994 1190 c-17 -11 -44 -39 -61 -62 -55 -77 -87 -149 -138 -315 -3
-10 25 -13 120 -13 l125 0 0 205 c0 113 -3 205 -7 205 -5 0 -22 -9 -39 -20z"/>
<path d="M1110 1005 l0 -205 125 0 c95 0 123 3 120 13 -52 166 -83 238 -138
315 -27 37 -82 82 -101 82 -3 0 -6 -92 -6 -205z"/>
<path d="M835 1161 c-136 -64 -238 -163 -334 -323 l-23 -38 125 0 124 0 18 63
c24 87 84 223 123 280 18 26 32 47 30 47 -2 0 -30 -13 -63 -29z"/>
<path d="M1281 1143 c40 -57 100 -193 124 -280 l18 -63 124 0 125 0 -23 38
c-101 167 -221 278 -362 337 l-39 16 33 -48z"/>
<path d="M586 1085 c-87 -52 -145 -97 -210 -164 -55 -56 -59 -63 -50 -88 8
-24 16 -28 50 -31 38 -3 42 0 54 28 24 59 92 154 158 222 36 38 63 68 61 68
-3 0 -31 -16 -63 -35z"/>
<path d="M1561 1054 c67 -70 135 -165 159 -224 12 -28 16 -31 54 -28 34 3 42
7 50 31 9 25 5 32 -54 93 -64 64 -172 145 -240 179 -31 16 -28 10 31 -51z"/>
<path d="M440 711 c-5 -11 -10 -28 -10 -38 0 -32 201 -283 226 -283 7 0 15 28
19 73 3 39 13 114 21 164 8 51 14 95 14 98 0 3 -58 5 -130 5 -118 0 -130 -2
-140 -19z"/>
<path d="M770 717 c0 -8 -6 -58 -14 -113 -8 -54 -16 -125 -19 -156 l-4 -58
154 0 153 0 0 170 0 170 -135 0 c-105 0 -135 -3 -135 -13z"/>
<path d="M1110 560 l0 -170 153 0 154 0 -4 58 c-3 31 -11 102 -19 156 -8 55
-14 105 -14 113 0 10 -30 13 -135 13 l-135 0 0 -170z"/>
<path d="M1440 725 c0 -3 6 -47 14 -98 8 -50 18 -125 21 -164 4 -45 12 -73 19
-73 25 0 226 251 226 283 0 10 -5 27 -10 38 -10 17 -22 19 -140 19 -72 0 -130
-2 -130 -5z"/>
<path d="M770 279 c50 -45 246 -179 261 -179 5 0 9 47 9 110 l0 110 -157 0
-158 -1 45 -40z"/>
<path d="M1110 210 c0 -63 4 -110 9 -110 15 0 211 134 261 179 l45 40 -157 1
-158 0 0 -110z"/>
</g>
</svg>
