<?xml version="1.0" standalone="no"?>
<!DOCTYPE svg PUBLIC "-//W3C//DTD SVG 20010904//EN"
 "http://www.w3.org/TR/2001/REC-SVG-20010904/DTD/svg10.dtd">
<svg version="1.0" xmlns="http://www.w3.org/2000/svg"
 width="794.000000pt" height="141.000000pt" viewBox="0 0 794.000000 141.000000"
 preserveAspectRatio="xMidYMid meet">

<g transform="translate(0.000000,141.000000) scale(0.100000,-0.100000)"
fill="#000000" stroke="none">
<path d="M10 705 l0 -695 160 0 160 0 0 695 0 695 -160 0 -160 0 0 -695z"/>
<path d="M975 1393 c-80 -19 -101 -28 -136 -60 -72 -66 -74 -79 -74 -628 0
-441 2 -485 19 -537 21 -66 62 -110 126 -135 41 -16 100 -18 730 -21 l685 -3
-30 30 c-16 16 -79 74 -139 130 l-109 101 -484 0 -483 0 0 445 0 445 445 0
445 0 0 -110 0 -110 156 0 156 0 -4 143 c-4 160 -20 211 -77 259 -61 52 -67
52 -656 54 -302 1 -559 0 -570 -3z"/>
<path d="M2630 705 l0 -695 155 0 155 0 0 580 0 580 399 0 c265 0 409 -4 430
-11 50 -18 61 -51 61 -184 0 -64 -5 -125 -10 -135 -23 -43 -39 -45 -428 -50
l-373 -5 128 -118 127 -118 336 3 c316 3 338 4 380 24 61 28 106 77 125 135
14 40 16 89 13 286 -3 224 -4 241 -25 280 -24 45 -59 76 -113 101 -31 15 -105
17 -697 20 l-663 3 0 -696z"/>
<path d="M4585 1386 c-159 -39 -189 -108 -183 -420 4 -211 11 -242 71 -304 62
-65 75 -66 645 -70 l512 -3 0 -159 0 -160 -600 -2 -600 -3 138 -127 137 -128
475 0 c500 0 549 4 621 46 84 49 103 132 97 419 -6 260 -22 305 -127 354 l-56
26 -515 5 -515 5 0 145 0 145 577 5 577 5 -127 117 -127 118 -475 -1 c-341 0
-489 -4 -525 -13z"/>
<path d="M6280 705 l0 -695 155 0 155 0 0 580 0 580 400 0 c441 0 456 -2 479
-58 9 -20 12 -72 9 -161 -5 -193 38 -175 -433 -181 l-385 -5 405 -377 406
-378 230 0 231 0 -224 182 c-123 101 -265 217 -316 257 -51 41 -92 78 -92 82
0 4 71 9 158 11 148 3 160 5 209 31 59 30 96 74 113 132 8 27 10 119 8 286
l-3 246 -30 49 c-24 37 -45 56 -90 79 l-59 30 -663 3 -663 3 0 -696z"/>
</g>
</svg>
