<?xml version="1.0" encoding="UTF-8"?>
<svg version="1.1" xmlns="http://www.w3.org/2000/svg" width="517" height="88" style = "background-color:white">
<path d="M0 0 C12.54 0 25.08 0 38 0 C38 29.04 38 58.08 38 88 C25.46 88 12.92 88 0 88 C0 83.05 0 78.1 0 73 C0.66 73 1.32 73 2 73 C2 72.01 2 71.02 2 70 C1.34 70 0.68 70 0 70 C0 65.05 0 60.1 0 55 C0.66 55 1.32 55 2 55 C2 54.34 2 53.68 2 53 C1.34 53 0.68 53 0 53 C0 47.72 0 42.44 0 37 C0.66 37 1.32 37 2 37 C2 35.68 2 34.36 2 33 C1.34 33 0.68 33 0 33 C0 28.05 0 23.1 0 18 C0.66 18 1.32 18 2 18 C2 17.01 2 16.02 2 15 C1.34 15 0.68 15 0 15 C0 10.05 0 5.1 0 0 Z " fill="#487279" transform="translate(79,0)"/>
<path d="M0 0 C11.55 0 23.1 0 35 0 C35 23.1 35 46.2 35 70 C23.45 70 11.9 70 0 70 C0 46.9 0 23.8 0 0 Z " fill="#5BC0CF" transform="translate(40,18)"/>
<path d="M0 0 C11.55 0 23.1 0 35 0 C35 17.49 35 34.98 35 53 C23.45 53 11.9 53 0 53 C0 35.51 0 18.02 0 0 Z " fill="#7EA8B0" transform="translate(121,35)"/>
<path d="M0 0 C11.55 0 23.1 0 35 0 C35 11.55 35 23.1 35 35 C23.45 35 11.9 35 0 35 C0 23.45 0 11.9 0 0 Z " fill="#1C2C30" transform="translate(0,53)"/>
<path d="M0 0 C4.95 0 9.9 0 15 0 C15 0.66 15 1.32 15 2 C16.65 2 18.3 2 20 2 C20 2.66 20 3.32 20 4 C20.66 4 21.32 4 22 4 C22 4.66 22 5.32 22 6 C22.66 6 23.32 6 24 6 C24 6.66 24 7.32 24 8 C24.66 8 25.32 8 26 8 C26 10.31 26 12.62 26 15 C26.99 15 27.98 15 29 15 C29 17.31 29 19.62 29 22 C28.01 22 27.02 22 26 22 C26 23.98 26 25.96 26 28 C25.34 28 24.68 28 24 28 C24 29.65 24 31.3 24 33 C23.34 33 22.68 33 22 33 C22 33.66 22 34.32 22 35 C20.68 35 19.36 35 18 35 C18 35.66 18 36.32 18 37 C11.4 37 4.8 37 -2 37 C-2 36.34 -2 35.68 -2 35 C-3.65 35 -5.3 35 -7 35 C-7 33.35 -7 31.7 -7 30 C-7.66 30 -8.32 30 -9 30 C-9 29.34 -9 28.68 -9 28 C-9.66 28 -10.32 28 -11 28 C-11 22.39 -11 16.78 -11 11 C-10.34 11 -9.68 11 -9 11 C-9 9.35 -9 7.7 -9 6 C-8.34 6 -7.68 6 -7 6 C-7 5.34 -7 4.68 -7 4 C-6.01 4 -5.02 4 -4 4 C-4 3.34 -4 2.68 -4 2 C-2.68 2 -1.36 2 0 2 C0 1.34 0 0.68 0 0 Z M7 6 C7 6.66 7 7.32 7 8 C5.35 8 3.7 8 2 8 C2 8.99 2 9.98 2 11 C1.34 11 0.68 11 0 11 C0 11.66 0 12.32 0 13 C-0.66 13 -1.32 13 -2 13 C-2 14.32 -2 15.64 -2 17 C-2.66 17 -3.32 17 -4 17 C-4 17.66 -4 18.32 -4 19 C-3.34 19 -2.68 19 -2 19 C-2 21.31 -2 23.62 -2 26 C-1.34 26 -0.68 26 0 26 C0 26.66 0 27.32 0 28 C0.66 28 1.32 28 2 28 C2 28.66 2 29.32 2 30 C5.63 30 9.26 30 13 30 C13 29.34 13 28.68 13 28 C13.66 28 14.32 28 15 28 C15 27.34 15 26.68 15 26 C15.99 26 16.98 26 18 26 C18 23.69 18 21.38 18 19 C18.66 19 19.32 19 20 19 C20 18.34 20 17.68 20 17 C19.34 17 18.68 17 18 17 C18 15.02 18 13.04 18 11 C17.01 11 16.02 11 15 11 C15 10.01 15 9.02 15 8 C13.02 8 11.04 8 9 8 C9 7.34 9 6.68 9 6 C8.34 6 7.68 6 7 6 Z " fill="#414142" transform="translate(253,51)"/>
<path d="M0 0 C5.28 0 10.56 0 16 0 C16 0.66 16 1.32 16 2 C17.32 2 18.64 2 20 2 C20 2.66 20 3.32 20 4 C20.66 4 21.32 4 22 4 C22 4.66 22 5.32 22 6 C22.99 6 23.98 6 25 6 C25 6.66 25 7.32 25 8 C25.66 8 26.32 8 27 8 C27 10.31 27 12.62 27 15 C27.66 15 28.32 15 29 15 C29 17.97 29 20.94 29 24 C28.34 24 27.68 24 27 24 C27 25.32 27 26.64 27 28 C26.34 28 25.68 28 25 28 C25 29.65 25 31.3 25 33 C24.01 33 23.02 33 22 33 C22 33.66 22 34.32 22 35 C20.68 35 19.36 35 18 35 C18 35.66 18 36.32 18 37 C11.4 37 4.8 37 -2 37 C-2 36.34 -2 35.68 -2 35 C-2.66 35 -3.32 35 -4 35 C-4 34.34 -4 33.68 -4 33 C-4.66 33 -5.32 33 -6 33 C-6 32.01 -6 31.02 -6 30 C-6.66 30 -7.32 30 -8 30 C-8 29.34 -8 28.68 -8 28 C-8.99 28 -9.98 28 -11 28 C-11 22.39 -11 16.78 -11 11 C-10.01 11 -9.02 11 -8 11 C-8 9.35 -8 7.7 -8 6 C-7.34 6 -6.68 6 -6 6 C-6 5.34 -6 4.68 -6 4 C-4.68 4 -3.36 4 -2 4 C-2 3.34 -2 2.68 -2 2 C-1.34 2 -0.68 2 0 2 C0 1.34 0 0.68 0 0 Z M7 6 C7 6.66 7 7.32 7 8 C5.68 8 4.36 8 3 8 C3 8.99 3 9.98 3 11 C2.01 11 1.02 11 0 11 C0 11.66 0 12.32 0 13 C-0.66 13 -1.32 13 -2 13 C-2 17.29 -2 21.58 -2 26 C-1.34 26 -0.68 26 0 26 C0 26.66 0 27.32 0 28 C0.99 28 1.98 28 3 28 C3 28.66 3 29.32 3 30 C6.63 30 10.26 30 14 30 C14 29.34 14 28.68 14 28 C14.66 28 15.32 28 16 28 C16 27.34 16 26.68 16 26 C16.66 26 17.32 26 18 26 C18 25.34 18 24.68 18 24 C18.66 24 19.32 24 20 24 C20 21.03 20 18.06 20 15 C19.34 15 18.68 15 18 15 C18 13.68 18 12.36 18 11 C17.34 11 16.68 11 16 11 C16 10.01 16 9.02 16 8 C13.69 8 11.38 8 9 8 C9 7.34 9 6.68 9 6 C8.34 6 7.68 6 7 6 Z " fill="#404041" transform="translate(389,51)"/>
<path d="M0 0 C1.32 0 2.64 0 4 0 C4 0.66 4 1.32 4 2 C4.66 2 5.32 2 6 2 C6 2.66 6 3.32 6 4 C6.99 4 7.98 4 9 4 C9 5.32 9 6.64 9 8 C9.66 8 10.32 8 11 8 C11 8.99 11 9.98 11 11 C11.66 11 12.32 11 13 11 C13 11.66 13 12.32 13 13 C13.66 13 14.32 13 15 13 C15 13.66 15 14.32 15 15 C15.66 15 16.32 15 17 15 C17 15.66 17 16.32 17 17 C17.99 17 18.98 17 20 17 C20 17.66 20 18.32 20 19 C20.66 19 21.32 19 22 19 C22 12.73 22 6.46 22 0 C24.97 0 27.94 0 31 0 C31 12.21 31 24.42 31 37 C29.35 37 27.7 37 26 37 C26 36.34 26 35.68 26 35 C25.34 35 24.68 35 24 35 C24 34.34 24 33.68 24 33 C23.34 33 22.68 33 22 33 C22 32.01 22 31.02 22 30 C21.34 30 20.68 30 20 30 C20 29.34 20 28.68 20 28 C19.01 28 18.02 28 17 28 C17 27.34 17 26.68 17 26 C16.34 26 15.68 26 15 26 C15 25.34 15 24.68 15 24 C14.34 24 13.68 24 13 24 C13 23.34 13 22.68 13 22 C12.34 22 11.68 22 11 22 C11 21.01 11 20.02 11 19 C10.34 19 9.68 19 9 19 C9 24.94 9 30.88 9 37 C6.03 37 3.06 37 0 37 C0 24.79 0 12.58 0 0 Z M6 17 C6 17.66 6 18.32 6 19 C6.99 19 7.98 19 9 19 C9 18.34 9 17.68 9 17 C8.01 17 7.02 17 6 17 Z " fill="#404141" transform="translate(427,51)"/>
<path d="M0 0 C6.6 0 13.2 0 20 0 C20 0.66 20 1.32 20 2 C20.66 2 21.32 2 22 2 C22 2.66 22 3.32 22 4 C22.99 4 23.98 4 25 4 C25 4.66 25 5.32 25 6 C25.66 6 26.32 6 27 6 C27 10.29 27 14.58 27 19 C26.34 19 25.68 19 25 19 C25 19.99 25 20.98 25 22 C24.01 22 23.02 22 22 22 C22 23.98 22 25.96 22 28 C22.99 28 23.98 28 25 28 C25 29.65 25 31.3 25 33 C25.66 33 26.32 33 27 33 C27 33.66 27 34.32 27 35 C27.66 35 28.32 35 29 35 C29 35.66 29 36.32 29 37 C25.37 37 21.74 37 18 37 C18 35.68 18 34.36 18 33 C17.34 33 16.68 33 16 33 C16 32.01 16 31.02 16 30 C15.34 30 14.68 30 14 30 C14 28.68 14 27.36 14 26 C11.69 26 9.38 26 7 26 C7 29.63 7 33.26 7 37 C4.69 37 2.38 37 0 37 C0 24.79 0 12.58 0 0 Z M7 8 C7 10.97 7 13.94 7 17 C10.63 17 14.26 17 18 17 C18 14.03 18 11.06 18 8 C14.37 8 10.74 8 7 8 Z " fill="#404041" transform="translate(290,51)"/>
<path d="M0 0 C2.97 0 5.94 0 9 0 C9 4.95 9 9.9 9 15 C13.95 15 18.9 15 24 15 C24 10.05 24 5.1 24 0 C26.31 0 28.62 0 31 0 C31 12.21 31 24.42 31 37 C28.69 37 26.38 37 24 37 C24 32.71 24 28.42 24 24 C19.05 24 14.1 24 9 24 C9 28.29 9 32.58 9 37 C6.03 37 3.06 37 0 37 C0 24.79 0 12.58 0 0 Z " fill="#3F4041" transform="translate(200,51)"/>
<path d="M0 0 C5.94 0 11.88 0 18 0 C18 0.66 18 1.32 18 2 C19.32 2 20.64 2 22 2 C22 2.66 22 3.32 22 4 C22.99 4 23.98 4 25 4 C25 5.65 25 7.3 25 9 C24.01 9 23.02 9 22 9 C22 9.66 22 10.32 22 11 C20.02 11 18.04 11 16 11 C16 10.34 16 9.68 16 9 C15.34 9 14.68 9 14 9 C14 8.34 14 7.68 14 7 C11.03 7 8.06 7 5 7 C5 7.66 5 8.32 5 9 C4.34 9 3.68 9 3 9 C3 9.66 3 10.32 3 11 C2.01 11 1.02 11 0 11 C0 11.66 0 12.32 0 13 C-0.66 13 -1.32 13 -2 13 C-2 16.63 -2 20.26 -2 24 C-1.34 24 -0.68 24 0 24 C0 24.66 0 25.32 0 26 C0.99 26 1.98 26 3 26 C3 26.99 3 27.98 3 29 C3.66 29 4.32 29 5 29 C5 29.66 5 30.32 5 31 C7.97 31 10.94 31 14 31 C14 30.34 14 29.68 14 29 C14.66 29 15.32 29 16 29 C16 28.01 16 27.02 16 26 C16.66 26 17.32 26 18 26 C18 25.34 18 24.68 18 24 C18.66 24 19.32 24 20 24 C20 24.66 20 25.32 20 26 C21.65 26 23.3 26 25 26 C25 28.31 25 30.62 25 33 C24.01 33 23.02 33 22 33 C22 33.66 22 34.32 22 35 C20.68 35 19.36 35 18 35 C18 35.66 18 36.32 18 37 C12.06 37 6.12 37 0 37 C0 36.34 0 35.68 0 35 C-1.32 35 -2.64 35 -4 35 C-4 34.34 -4 33.68 -4 33 C-4.66 33 -5.32 33 -6 33 C-6 32.34 -6 31.68 -6 31 C-6.66 31 -7.32 31 -8 31 C-8 29.35 -8 27.7 -8 26 C-8.99 26 -9.98 26 -11 26 C-11 21.05 -11 16.1 -11 11 C-10.01 11 -9.02 11 -8 11 C-8 9.68 -8 8.36 -8 7 C-7.34 7 -6.68 7 -6 7 C-6 6.01 -6 5.02 -6 4 C-5.34 4 -4.68 4 -4 4 C-4 3.34 -4 2.68 -4 2 C-2.68 2 -1.36 2 0 2 C0 1.34 0 0.68 0 0 Z " fill="#404041" transform="translate(422,0)"/>
<path d="M0 0 C4.95 0 9.9 0 15 0 C15 0.66 15 1.32 15 2 C15.99 2 16.98 2 18 2 C18 2.66 18 3.32 18 4 C18.66 4 19.32 4 20 4 C20 4.99 20 5.98 20 7 C19.34 7 18.68 7 18 7 C18 7.66 18 8.32 18 9 C17.01 9 16.02 9 15 9 C15 9.66 15 10.32 15 11 C13.68 11 12.36 11 11 11 C11 10.34 11 9.68 11 9 C10.34 9 9.68 9 9 9 C9 8.34 9 7.68 9 7 C7.35 7 5.7 7 4 7 C4 8.32 4 9.64 4 11 C4.99 11 5.98 11 7 11 C7 11.66 7 12.32 7 13 C8.32 13 9.64 13 11 13 C11 13.66 11 14.32 11 15 C12.32 15 13.64 15 15 15 C15 15.99 15 16.98 15 18 C15.99 18 16.98 18 18 18 C18 18.66 18 19.32 18 20 C18.66 20 19.32 20 20 20 C20 21.32 20 22.64 20 24 C20.66 24 21.32 24 22 24 C22 25.65 22 27.3 22 29 C21.34 29 20.68 29 20 29 C20 30.32 20 31.64 20 33 C19.34 33 18.68 33 18 33 C18 33.66 18 34.32 18 35 C17.01 35 16.02 35 15 35 C15 35.66 15 36.32 15 37 C13.02 37 11.04 37 9 37 C9 37.99 9 38.98 9 40 C8.34 40 7.68 40 7 40 C7 39.01 7 38.02 7 37 C4.69 37 2.38 37 0 37 C0 36.34 0 35.68 0 35 C-1.32 35 -2.64 35 -4 35 C-4 34.34 -4 33.68 -4 33 C-4.99 33 -5.98 33 -7 33 C-7 30.69 -7 28.38 -7 26 C-4.03 26 -1.06 26 2 26 C2 26.99 2 27.98 2 29 C2.66 29 3.32 29 4 29 C4 29.66 4 30.32 4 31 C6.31 31 8.62 31 11 31 C11 30.34 11 29.68 11 29 C11.66 29 12.32 29 13 29 C13 28.01 13 27.02 13 26 C12.34 26 11.68 26 11 26 C11 25.34 11 24.68 11 24 C10.34 24 9.68 24 9 24 C9 23.34 9 22.68 9 22 C7.35 22 5.7 22 4 22 C4 21.34 4 20.68 4 20 C2.68 20 1.36 20 0 20 C0 19.34 0 18.68 0 18 C-0.66 18 -1.32 18 -2 18 C-2 17.01 -2 16.02 -2 15 C-2.66 15 -3.32 15 -4 15 C-4 11.37 -4 7.74 -4 4 C-3.34 4 -2.68 4 -2 4 C-2 3.34 -2 2.68 -2 2 C-1.34 2 -0.68 2 0 2 C0 1.34 0 0.68 0 0 Z " fill="#434344" transform="translate(330,0)"/>
<path d="M0 0 C5.28 0 10.56 0 16 0 C16 0.66 16 1.32 16 2 C16.66 2 17.32 2 18 2 C18 2.66 18 3.32 18 4 C18.66 4 19.32 4 20 4 C20 4.99 20 5.98 20 7 C19.34 7 18.68 7 18 7 C18 7.66 18 8.32 18 9 C17.34 9 16.68 9 16 9 C16 9.66 16 10.32 16 11 C14.35 11 12.7 11 11 11 C11 9.68 11 8.36 11 7 C9.02 7 7.04 7 5 7 C5 8.32 5 9.64 5 11 C5.66 11 6.32 11 7 11 C7 11.66 7 12.32 7 13 C8.32 13 9.64 13 11 13 C11 13.66 11 14.32 11 15 C12.65 15 14.3 15 16 15 C16 15.99 16 16.98 16 18 C16.66 18 17.32 18 18 18 C18 18.66 18 19.32 18 20 C18.66 20 19.32 20 20 20 C20 24.29 20 28.58 20 33 C19.34 33 18.68 33 18 33 C18 33.66 18 34.32 18 35 C17.34 35 16.68 35 16 35 C16 35.66 16 36.32 16 37 C13.69 37 11.38 37 9 37 C9 37.99 9 38.98 9 40 C8.34 40 7.68 40 7 40 C7 39.01 7 38.02 7 37 C4.69 37 2.38 37 0 37 C0 36.34 0 35.68 0 35 C-1.32 35 -2.64 35 -4 35 C-4 34.34 -4 33.68 -4 33 C-4.66 33 -5.32 33 -6 33 C-6 30.69 -6 28.38 -6 26 C-3.36 26 -0.72 26 2 26 C2 26.99 2 27.98 2 29 C2.99 29 3.98 29 5 29 C5 29.66 5 30.32 5 31 C6.98 31 8.96 31 11 31 C11 30.34 11 29.68 11 29 C11.66 29 12.32 29 13 29 C13 28.01 13 27.02 13 26 C12.34 26 11.68 26 11 26 C11 25.34 11 24.68 11 24 C10.34 24 9.68 24 9 24 C9 23.34 9 22.68 9 22 C7.68 22 6.36 22 5 22 C5 21.34 5 20.68 5 20 C3.35 20 1.7 20 0 20 C0 19.34 0 18.68 0 18 C-0.66 18 -1.32 18 -2 18 C-2 17.01 -2 16.02 -2 15 C-2.66 15 -3.32 15 -4 15 C-4 11.37 -4 7.74 -4 4 C-3.34 4 -2.68 4 -2 4 C-2 3.34 -2 2.68 -2 2 C-1.34 2 -0.68 2 0 2 C0 1.34 0 0.68 0 0 Z " fill="#424242" transform="translate(178,0)"/>
<path d="M0 0 C3.63 0 7.26 0 11 0 C11 0.66 11 1.32 11 2 C12.32 2 13.64 2 15 2 C15 2.66 15 3.32 15 4 C15.99 4 16.98 4 18 4 C18 5.32 18 6.64 18 8 C16.35 8 14.7 8 13 8 C13 8.99 13 9.98 13 11 C11.68 11 10.36 11 9 11 C9 10.01 9 9.02 9 8 C8.34 8 7.68 8 7 8 C7 7.34 7 6.68 7 6 C6.01 6 5.02 6 4 6 C4 6.66 4 7.32 4 8 C3.34 8 2.68 8 2 8 C2 8.99 2 9.98 2 11 C2.66 11 3.32 11 4 11 C4 11.66 4 12.32 4 13 C4.99 13 5.98 13 7 13 C7 13.66 7 14.32 7 15 C8.32 15 9.64 15 11 15 C11 15.66 11 16.32 11 17 C12.32 17 13.64 17 15 17 C15 17.66 15 18.32 15 19 C15.99 19 16.98 19 18 19 C18 19.99 18 20.98 18 22 C18.66 22 19.32 22 20 22 C20 25.63 20 29.26 20 33 C19.34 33 18.68 33 18 33 C18 33.66 18 34.32 18 35 C17.01 35 16.02 35 15 35 C15 35.66 15 36.32 15 37 C9.39 37 3.78 37 -2 37 C-2 36.34 -2 35.68 -2 35 C-3.65 35 -5.3 35 -7 35 C-7 32.69 -7 30.38 -7 28 C-6.01 28 -5.02 28 -4 28 C-4 27.34 -4 26.68 -4 26 C-2.68 26 -1.36 26 0 26 C0 26.66 0 27.32 0 28 C0.66 28 1.32 28 2 28 C2 28.66 2 29.32 2 30 C4.97 30 7.94 30 11 30 C11 28.68 11 27.36 11 26 C10.34 26 9.68 26 9 26 C9 25.34 9 24.68 9 24 C8.34 24 7.68 24 7 24 C7 23.34 7 22.68 7 22 C5.35 22 3.7 22 2 22 C2 21.01 2 20.02 2 19 C0.68 19 -0.64 19 -2 19 C-2 18.34 -2 17.68 -2 17 C-2.66 17 -3.32 17 -4 17 C-4 15.68 -4 14.36 -4 13 C-4.99 13 -5.98 13 -7 13 C-7 11.35 -7 9.7 -7 8 C-6.01 8 -5.02 8 -4 8 C-4 6.68 -4 5.36 -4 4 C-3.34 4 -2.68 4 -2 4 C-2 3.34 -2 2.68 -2 2 C-1.34 2 -0.68 2 0 2 C0 1.34 0 0.68 0 0 Z " fill="#404041" transform="translate(473,51)"/>
<path d="M0 0 C8.58 0 17.16 0 26 0 C26 1.32 26 2.64 26 4 C25.34 4 24.68 4 24 4 C24 4.66 24 5.32 24 6 C23.34 6 22.68 6 22 6 C22 7.65 22 9.3 22 11 C21.01 11 20.02 11 19 11 C19 12.32 19 13.64 19 15 C18.34 15 17.68 15 17 15 C17 15.66 17 16.32 17 17 C16.34 17 15.68 17 15 17 C15 18.65 15 20.3 15 22 C14.34 22 13.68 22 13 22 C13 23.32 13 24.64 13 26 C12.34 26 11.68 26 11 26 C11 26.66 11 27.32 11 28 C10.01 28 9.02 28 8 28 C8 28.66 8 29.32 8 30 C13.28 30 18.56 30 24 30 C24 32.31 24 34.62 24 37 C14.43 37 4.86 37 -5 37 C-5 36.34 -5 35.68 -5 35 C-4.34 35 -3.68 35 -3 35 C-3 33.35 -3 31.7 -3 30 C-2.01 30 -1.02 30 0 30 C0 29.34 0 28.68 0 28 C0.66 28 1.32 28 2 28 C2 26.68 2 25.36 2 24 C2.66 24 3.32 24 4 24 C4 22.35 4 20.7 4 19 C4.66 19 5.32 19 6 19 C6 18.34 6 17.68 6 17 C6.66 17 7.32 17 8 17 C8 15.68 8 14.36 8 13 C8.99 13 9.98 13 11 13 C11 11.35 11 9.7 11 8 C7.37 8 3.74 8 0 8 C0 5.36 0 2.72 0 0 Z " fill="#404041" transform="translate(348,51)"/>
<path d="M0 0 C1.65 0 3.3 0 5 0 C5 1.32 5 2.64 5 4 C5.66 4 6.32 4 7 4 C7 5.65 7 7.3 7 9 C7.66 9 8.32 9 9 9 C9 10.32 9 11.64 9 13 C9.66 13 10.32 13 11 13 C11 15.31 11 17.62 11 20 C11.99 20 12.98 20 14 20 C14 21.32 14 22.64 14 24 C14.66 24 15.32 24 16 24 C16 25.65 16 27.3 16 29 C16.66 29 17.32 29 18 29 C18 30.32 18 31.64 18 33 C18.66 33 19.32 33 20 33 C20 34.32 20 35.64 20 37 C17.03 37 14.06 37 11 37 C11 36.34 11 35.68 11 35 C10.34 35 9.68 35 9 35 C9 33.68 9 32.36 9 31 C4.71 31 0.42 31 -4 31 C-4 32.32 -4 33.64 -4 35 C-4.66 35 -5.32 35 -6 35 C-6 35.66 -6 36.32 -6 37 C-8.97 37 -11.94 37 -15 37 C-15 35.68 -15 34.36 -15 33 C-14.34 33 -13.68 33 -13 33 C-13 31.68 -13 30.36 -13 29 C-12.34 29 -11.68 29 -11 29 C-11 27.35 -11 25.7 -11 24 C-10.01 24 -9.02 24 -8 24 C-8 22.68 -8 21.36 -8 20 C-7.34 20 -6.68 20 -6 20 C-6 17.69 -6 15.38 -6 13 C-5.34 13 -4.68 13 -4 13 C-4 11.68 -4 10.36 -4 9 C-3.34 9 -2.68 9 -2 9 C-2 7.35 -2 5.7 -2 4 C-1.34 4 -0.68 4 0 4 C0 2.68 0 1.36 0 0 Z M0 18 C0 19.32 0 20.64 0 22 C-0.66 22 -1.32 22 -2 22 C-2 22.66 -2 23.32 -2 24 C0.31 24 2.62 24 5 24 C5 22.02 5 20.04 5 18 C3.35 18 1.7 18 0 18 Z " fill="#404041" transform="translate(466,0)"/>
<path d="M0 0 C1.32 0 2.64 0 4 0 C4 0.66 4 1.32 4 2 C4.66 2 5.32 2 6 2 C6 3.65 6 5.3 6 7 C6.66 7 7.32 7 8 7 C8 8.32 8 9.64 8 11 C8.99 11 9.98 11 11 11 C11 13.31 11 15.62 11 18 C11.66 18 12.32 18 13 18 C13 19.32 13 20.64 13 22 C13.66 22 14.32 22 15 22 C15 23.32 15 24.64 15 26 C15.66 26 16.32 26 17 26 C17 28.31 17 30.62 17 33 C17.66 33 18.32 33 19 33 C19 34.32 19 35.64 19 37 C16.36 37 13.72 37 11 37 C11 35.68 11 34.36 11 33 C10.01 33 9.02 33 8 33 C8 32.34 8 31.68 8 31 C3.71 31 -0.58 31 -5 31 C-5 32.98 -5 34.96 -5 37 C-7.97 37 -10.94 37 -14 37 C-14 35.02 -14 33.04 -14 31 C-13.01 31 -12.02 31 -11 31 C-11 29.35 -11 27.7 -11 26 C-10.34 26 -9.68 26 -9 26 C-9 24.68 -9 23.36 -9 22 C-8.34 22 -7.68 22 -7 22 C-7 19.69 -7 17.38 -7 15 C-6.34 15 -5.68 15 -5 15 C-5 13.68 -5 12.36 -5 11 C-4.34 11 -3.68 11 -3 11 C-3 8.69 -3 6.38 -3 4 C-2.01 4 -1.02 4 0 4 C0 2.68 0 1.36 0 0 Z M2 15 C2 16.65 2 18.3 2 20 C1.34 20 0.68 20 0 20 C0 21.32 0 22.64 0 24 C1.98 24 3.96 24 6 24 C6 23.34 6 22.68 6 22 C5.34 22 4.68 22 4 22 C4 19.69 4 17.38 4 15 C3.34 15 2.68 15 2 15 Z " fill="#404041" transform="translate(249,0)"/>
<path d="M0 0 C11.55 0 23.1 0 35 0 C35 4.95 35 9.9 35 15 C23.45 15 11.9 15 0 15 C0 10.05 0 5.1 0 0 Z " fill="#5BC0CF" transform="translate(40,73)"/>
<path d="M0 0 C5.94 0 11.88 0 18 0 C18 0.66 18 1.32 18 2 C18.66 2 19.32 2 20 2 C20 1.34 20 0.68 20 0 C24.95 0 29.9 0 35 0 C35 4.95 35 9.9 35 15 C23.45 15 11.9 15 0 15 C0 10.05 0 5.1 0 0 Z " fill="#1C2B30" transform="translate(0,73)"/>
<path d="M0 0 C9.57 0 19.14 0 29 0 C29 2.31 29 4.62 29 7 C26.03 7 23.06 7 20 7 C20 16.9 20 26.8 20 37 C17.03 37 14.06 37 11 37 C11 27.1 11 17.2 11 7 C7.37 7 3.74 7 0 7 C0 4.69 0 2.38 0 0 Z " fill="#3F3E3F" transform="translate(356,0)"/>
<path d="M0 0 C9.24 0 18.48 0 28 0 C28 2.31 28 4.62 28 7 C24.37 7 20.74 7 17 7 C17 16.9 17 26.8 17 37 C14.03 37 11.06 37 8 37 C8 27.1 8 17.2 8 7 C5.36 7 2.72 7 0 7 C0 4.69 0 2.38 0 0 Z " fill="#424142" transform="translate(271,0)"/>
<path d="M0 0 C4.95 0 9.9 0 15 0 C15 1.32 15 2.64 15 4 C15.99 4 16.98 4 18 4 C18 8.29 18 12.58 18 17 C23.61 17 29.22 17 35 17 C35 17.66 35 18.32 35 19 C34.34 19 33.68 19 33 19 C33 19.99 33 20.98 33 22 C28.71 22 24.42 22 20 22 C20 21.01 20 20.02 20 19 C18.35 19 16.7 19 15 19 C15 19.99 15 20.98 15 22 C10.71 22 6.42 22 2 22 C2 21.01 2 20.02 2 19 C1.34 19 0.68 19 0 19 C0 12.73 0 6.46 0 0 Z " fill="#7FAAB2" transform="translate(121,51)"/>
<path d="M0 0 C2.97 0 5.94 0 9 0 C9 10.23 9 20.46 9 31 C13.95 31 18.9 31 24 31 C24 32.98 24 34.96 24 37 C16.08 37 8.16 37 0 37 C0 24.79 0 12.58 0 0 Z " fill="#424142" transform="translate(493,0)"/>
<path d="M0 0 C9.24 0 18.48 0 28 0 C28 2.31 28 4.62 28 7 C24.37 7 20.74 7 17 7 C17 16.9 17 26.8 17 37 C15.02 37 13.04 37 11 37 C11 27.1 11 17.2 11 7 C7.37 7 3.74 7 0 7 C0 4.69 0 2.38 0 0 Z " fill="#403F40" transform="translate(205,0)"/>
<path d="M0 0 C2.97 0 5.94 0 9 0 C9 12.21 9 24.42 9 37 C6.03 37 3.06 37 0 37 C0 24.79 0 12.58 0 0 Z " fill="#414041" transform="translate(328,51)"/>
<path d="M0 0 C2.97 0 5.94 0 9 0 C9 12.21 9 24.42 9 37 C6.03 37 3.06 37 0 37 C0 24.79 0 12.58 0 0 Z " fill="#3E3F3F" transform="translate(394,0)"/>
<path d="M0 0 C2.97 0 5.94 0 9 0 C9 12.21 9 24.42 9 37 C6.03 37 3.06 37 0 37 C0 24.79 0 12.58 0 0 Z " fill="#424142" transform="translate(308,0)"/>
<path d="M0 0 C0.99 0 1.98 0 3 0 C3 4.29 3 8.58 3 13 C8.61 13 14.22 13 20 13 C20 13.66 20 14.32 20 15 C19.34 15 18.68 15 18 15 C18 15.99 18 16.98 18 18 C13.71 18 9.42 18 5 18 C5 17.01 5 16.02 5 15 C3.35 15 1.7 15 0 15 C0 15.99 0 16.98 0 18 C-4.29 18 -8.58 18 -13 18 C-13 17.01 -13 16.02 -13 15 C-13.66 15 -14.32 15 -15 15 C-15 14.34 -15 13.68 -15 13 C-10.05 13 -5.1 13 0 13 C0 8.71 0 4.42 0 0 Z " fill="#70B4BF" transform="translate(136,55)"/>
<path d="M0 0 C0.66 0 1.32 0 2 0 C2 0.66 2 1.32 2 2 C6.29 2 10.58 2 15 2 C15 2.66 15 3.32 15 4 C15.66 4 16.32 4 17 4 C17 4.99 17 5.98 17 7 C12.05 7 7.1 7 2 7 C2 7.66 2 8.32 2 9 C1.34 9 0.68 9 0 9 C0 8.34 0 7.68 0 7 C-5.94 7 -11.88 7 -18 7 C-18 6.01 -18 5.02 -18 4 C-17.34 4 -16.68 4 -16 4 C-16 3.34 -16 2.68 -16 2 C-10.72 2 -5.44 2 0 2 C0 1.34 0 0.68 0 0 Z " fill="#3A3D3E" transform="translate(18,66)"/>
<path d="M0 0 C6.27 0 12.54 0 19 0 C19 0.66 19 1.32 19 2 C24.28 2 29.56 2 35 2 C35 2.99 35 3.98 35 5 C23.45 5 11.9 5 0 5 C0 3.35 0 1.7 0 0 Z " fill="#6CB1BD" transform="translate(40,68)"/>
<path d="M0 0 C10.89 0 21.78 0 33 0 C33 0.66 33 1.32 33 2 C33.66 2 34.32 2 35 2 C35 2.66 35 3.32 35 4 C23.45 4 11.9 4 0 4 C0 2.68 0 1.36 0 0 Z " fill="#6DB5C0" transform="translate(40,33)"/>
<path d="M0 0 C0.99 0 1.98 0 3 0 C3 12.21 3 24.42 3 37 C2.01 37 1.02 37 0 37 C0 24.79 0 12.58 0 0 Z " fill="#4F4F4F" transform="translate(334,51)"/>
<path d="M0 0 C5.94 0 11.88 0 18 0 C18 1.32 18 2.64 18 4 C6.45 4 -5.1 4 -17 4 C-17 3.34 -17 2.68 -17 2 C-11.39 2 -5.78 2 0 2 C0 1.34 0 0.68 0 0 Z " fill="#6AB7C4" transform="translate(57,51)"/>
<path d="M0 0 C4.95 0 9.9 0 15 0 C15 1.32 15 2.64 15 4 C10.05 4 5.1 4 0 4 C0 2.68 0 1.36 0 0 Z " fill="#6AB7C4" transform="translate(121,51)"/>
<path d="M0 0 C5.61 0 11.22 0 17 0 C17 0.66 17 1.32 17 2 C16.34 2 15.68 2 15 2 C15 2.66 15 3.32 15 4 C10.71 4 6.42 4 2 4 C2 3.34 2 2.68 2 2 C1.34 2 0.68 2 0 2 C0 1.34 0 0.68 0 0 Z " fill="#6AB7C4" transform="translate(139,51)"/>
<path d="M0 0 C0.66 0 1.32 0 2 0 C2 0.66 2 1.32 2 2 C7.28 2 12.56 2 18 2 C18 2.99 18 3.98 18 5 C12.06 5 6.12 5 0 5 C0 3.35 0 1.7 0 0 Z " fill="#659DA7" transform="translate(57,68)"/>
<path d="M0 0 C0.99 0 1.98 0 3 0 C3 5.94 3 11.88 3 18 C2.01 18 1.02 18 0 18 C0 12.06 0 6.12 0 0 Z " fill="#333333" transform="translate(433,70)"/>
<path d="M0 0 C1.65 0 3.3 0 5 0 C5 0.66 5 1.32 5 2 C4.34 2 3.68 2 3 2 C3 6.62 3 11.24 3 16 C2.01 16 1.02 16 0 16 C0 10.72 0 5.44 0 0 Z " fill="#74B4BF" transform="translate(136,35)"/>
<path d="M0 0 C0.99 0 1.98 0 3 0 C3 4.29 3 8.58 3 13 C3.66 13 4.32 13 5 13 C5 13.66 5 14.32 5 15 C3.35 15 1.7 15 0 15 C0 10.05 0 5.1 0 0 Z " fill="#72B5C0" transform="translate(136,73)"/>
<path d="M0 0 C4.95 0 9.9 0 15 0 C15 0.99 15 1.98 15 3 C10.05 3 5.1 3 0 3 C0 2.01 0 1.02 0 0 Z " fill="#4E7C85" transform="translate(99,70)"/>
<path d="M0 0 C0.66 0 1.32 0 2 0 C2 1.32 2 2.64 2 4 C-4.27 4 -10.54 4 -17 4 C-17 3.34 -17 2.68 -17 2 C-11.39 2 -5.78 2 0 2 C0 1.34 0 0.68 0 0 Z " fill="#64A5B2" transform="translate(57,51)"/>
<path d="M0 0 C0.66 0 1.32 0 2 0 C2 1.65 2 3.3 2 5 C-2.95 5 -7.9 5 -13 5 C-13 4.34 -13 3.68 -13 3 C-8.71 3 -4.42 3 0 3 C0 2.01 0 1.02 0 0 Z " fill="#67BAC6" transform="translate(55,48)"/>
<path d="M0 0 C1.65 0 3.3 0 5 0 C5 1.65 5 3.3 5 5 C4.34 5 3.68 5 3 5 C3 4.34 3 3.68 3 3 C2.01 3 1.02 3 0 3 C0 2.01 0 1.02 0 0 Z " fill="#3E4444" transform="translate(15,70)"/>
</svg>
